<svg width="472" height="422" viewBox="0 0 472 422" fill="none" xmlns="http://www.w3.org/2000/svg">
<rect width="472" height="422" rx="50" fill="white"/>
<path d="M282.957 164.043C281.768 162.844 280.353 161.892 278.795 161.243C277.236 160.594 275.564 160.259 273.875 160.259C272.187 160.259 270.515 160.594 268.956 161.243C267.397 161.892 265.982 162.844 264.793 164.043L235.5 193.464L206.207 164.043C203.799 161.634 200.532 160.281 197.125 160.281C193.719 160.281 190.452 161.634 188.043 164.043C185.634 166.452 184.281 169.719 184.281 173.125C184.281 176.531 185.634 179.798 188.043 182.207L217.464 211.5L188.043 240.793C186.844 241.982 185.893 243.397 185.243 244.956C184.594 246.514 184.259 248.186 184.259 249.875C184.259 251.564 184.594 253.236 185.243 254.794C185.893 256.353 186.844 257.768 188.043 258.957C189.232 260.156 190.647 261.108 192.206 261.757C193.765 262.406 195.437 262.741 197.125 262.741C198.814 262.741 200.486 262.406 202.045 261.757C203.603 261.108 205.018 260.156 206.207 258.957L235.5 229.536L264.793 258.957C265.982 260.156 267.397 261.108 268.956 261.757C270.515 262.406 272.187 262.741 273.875 262.741C275.564 262.741 277.236 262.406 278.795 261.757C280.353 261.108 281.768 260.156 282.957 258.957C284.156 257.768 285.108 256.353 285.757 254.794C286.407 253.236 286.741 251.564 286.741 249.875C286.741 248.186 286.407 246.514 285.757 244.956C285.108 243.397 284.156 241.982 282.957 240.793L253.536 211.5L282.957 182.207C284.156 181.018 285.108 179.603 285.757 178.044C286.407 176.486 286.741 174.814 286.741 173.125C286.741 171.436 286.407 169.764 285.757 168.206C285.108 166.647 284.156 165.232 282.957 164.043ZM325.937 121.063C314.137 108.846 300.022 99.1006 284.416 92.3966C268.81 85.6926 252.025 82.1639 235.04 82.0163C218.055 81.8687 201.211 85.1052 185.491 91.537C169.77 97.9687 155.488 107.467 143.478 119.477C131.467 131.488 121.969 145.77 115.537 161.49C109.105 177.211 105.869 194.055 106.017 211.04C106.164 228.024 109.693 244.81 116.397 260.416C123.101 276.022 132.846 290.137 145.063 301.937C156.863 314.154 170.978 323.899 186.584 330.603C202.191 337.307 218.976 340.836 235.961 340.984C252.945 341.131 269.789 337.895 285.51 331.463C301.23 325.031 315.512 315.533 327.523 303.523C339.533 291.512 349.032 277.23 355.463 261.51C361.895 245.789 365.132 228.945 364.984 211.96C364.836 194.976 361.308 178.19 354.604 162.584C347.9 146.978 338.155 132.863 325.937 121.063ZM307.901 283.901C291.17 300.65 269.149 311.081 245.59 313.415C222.031 315.749 198.392 309.843 178.699 296.702C159.007 283.562 144.479 264 137.592 241.349C130.706 218.699 131.885 194.361 140.93 172.483C149.975 150.604 166.326 132.539 187.198 121.364C208.069 110.19 232.169 106.597 255.391 111.199C278.614 115.801 299.523 128.312 314.556 146.601C329.589 164.89 337.815 187.826 337.834 211.5C337.879 224.948 335.257 238.271 330.119 250.699C324.981 263.126 317.43 274.411 307.901 283.901Z" fill="#EB0303"/>
</svg>
