<svg width="126" height="52" viewBox="0 0 126 52" fill="none" xmlns="http://www.w3.org/2000/svg">
<path d="M44.4171 10.6228C40.995 6.52088 36.3015 3.67831 31.0807 2.54559C25.8598 1.41288 20.4101 2.05481 15.5955 4.36965C10.7808 6.68449 6.87654 10.5398 4.50146 15.3246C2.12639 20.1094 1.41638 25.5498 2.48397 30.7838M49.3532 20.4778C50.6132 25.7931 50.0211 31.3792 47.6749 36.3124C45.3288 41.2457 41.369 45.2306 36.4504 47.6082C31.5318 49.9859 25.9489 50.614 20.6249 49.3886C15.3008 48.1632 10.5544 45.1577 7.17058 40.8691" stroke="#FF7C2A" stroke-width="3" stroke-linecap="round"/>
<path d="M71.544 27.824H65.016V35H61.944V17.456H72.792V20.288H65.016V25.064H71.544V27.824ZM78.0812 35H75.1772V17.144H78.0812V35ZM84.6806 35.312C82.1606 35.312 80.6246 33.848 80.6246 31.616C80.6246 29.432 82.2086 28.064 85.0166 27.848L88.5686 27.584V27.32C88.5686 25.712 87.6086 25.064 86.1206 25.064C84.3926 25.064 83.4326 25.784 83.4326 27.032H80.9366C80.9366 24.464 83.0486 22.784 86.2646 22.784C89.4566 22.784 91.4246 24.512 91.4246 27.8V35H88.8566L88.6406 33.248C88.1366 34.472 86.5286 35.312 84.6806 35.312ZM85.6406 33.104C87.4406 33.104 88.5926 32.024 88.5926 30.2V29.576L86.1206 29.768C84.2966 29.936 83.6006 30.536 83.6006 31.496C83.6006 32.576 84.3206 33.104 85.6406 33.104ZM93.3891 31.4H96.1731C96.1971 32.432 96.9651 33.08 98.3091 33.08C99.6771 33.08 100.421 32.528 100.421 31.664C100.421 31.064 100.109 30.632 99.0531 30.392L96.9171 29.888C94.7811 29.408 93.7491 28.4 93.7491 26.504C93.7491 24.176 95.7171 22.784 98.4531 22.784C101.117 22.784 102.917 24.32 102.941 26.624H100.157C100.133 25.616 99.4611 24.968 98.3331 24.968C97.1811 24.968 96.5091 25.496 96.5091 26.384C96.5091 27.056 97.0371 27.488 98.0451 27.728L100.181 28.232C102.173 28.688 103.181 29.6 103.181 31.424C103.181 33.824 101.141 35.312 98.2131 35.312C95.2611 35.312 93.3891 33.728 93.3891 31.4ZM108.338 35H105.41V17.144H108.362V24.68C109.106 23.528 110.498 22.784 112.202 22.784C115.13 22.784 116.666 24.632 116.666 27.704V35H113.738V28.4C113.738 26.408 112.754 25.448 111.266 25.448C109.418 25.448 108.338 26.744 108.338 28.52V35Z" fill="#FF7C2A"/>
<path d="M46 5.91837V11.8164L39.7056 12.278M12.2944 38.9475H6V45.102" stroke="#FF7C2A" stroke-width="3" stroke-linecap="round" stroke-linejoin="round"/>
<path d="M32.9087 23.3495L23.724 43.9067C23.4687 44.4762 23.0455 43.8164 23.2114 43.108L26.4807 29.0652C26.5055 28.9592 26.5173 28.8412 26.5151 28.7224C26.5129 28.6036 26.4967 28.488 26.4681 28.3867C26.4395 28.2854 26.3994 28.2018 26.3517 28.1439C26.304 28.0859 26.2503 28.0556 26.1957 28.0559H19.3188C19.256 28.0558 19.1946 28.0153 19.1423 27.9396C19.09 27.8638 19.0492 27.7562 19.0249 27.6301C19.0005 27.504 18.9939 27.3651 19.0057 27.2309C19.0175 27.0966 19.0472 26.9729 19.0912 26.8752L23.3507 17.4821L27.6102 8.08895C27.8569 7.54493 28.2674 8.1422 28.1302 8.84828L25.6873 21.384C25.6666 21.4903 25.6584 21.6061 25.6635 21.721C25.6685 21.8359 25.6866 21.9463 25.7162 22.0421C25.7457 22.1379 25.7858 22.2162 25.8328 22.2698C25.8797 22.3235 25.9321 22.3508 25.9851 22.3494L32.6758 22.1688C32.739 22.1666 32.801 22.2052 32.854 22.2798C32.9071 22.3544 32.9488 22.4615 32.9738 22.5877C32.9989 22.7139 33.0062 22.8534 32.9948 22.9886C32.9834 23.1238 32.9538 23.2486 32.9098 23.3472L32.9087 23.3495Z" stroke="#FF7C2A" stroke-width="2"/>
</svg>
