<svg width="472" height="422" viewBox="0 0 472 422" fill="none" xmlns="http://www.w3.org/2000/svg">
<rect width="472" height="422" rx="50" fill="white"/>
<path d="M270.294 170.439L215.417 225.443L194.311 204.337C193.164 202.998 191.753 201.91 190.166 201.142C188.579 200.374 186.851 199.943 185.089 199.875C183.327 199.807 181.571 200.104 179.929 200.747C178.288 201.39 176.797 202.365 175.55 203.612C174.304 204.859 173.328 206.349 172.685 207.991C172.042 209.632 171.745 211.389 171.813 213.151C171.881 214.912 172.313 216.641 173.08 218.228C173.848 219.815 174.936 221.226 176.275 222.373L206.335 252.561C207.53 253.747 208.948 254.685 210.507 255.321C212.065 255.958 213.734 256.281 215.417 256.271C218.773 256.257 221.989 254.924 224.371 252.561L288.33 188.603C289.529 187.414 290.48 185.999 291.13 184.44C291.779 182.881 292.114 181.209 292.114 179.521C292.114 177.832 291.779 176.16 291.13 174.601C290.48 173.043 289.529 171.628 288.33 170.439C285.933 168.056 282.691 166.719 279.312 166.719C275.932 166.719 272.69 168.056 270.294 170.439ZM235.5 83.5833C210.201 83.5833 185.469 91.0855 164.434 105.141C143.398 119.197 127.002 139.175 117.321 162.548C107.639 185.922 105.106 211.642 110.041 236.455C114.977 261.269 127.16 284.061 145.049 301.951C162.939 319.84 185.732 332.023 210.545 336.959C235.358 341.894 261.078 339.361 284.452 329.68C307.826 319.998 327.803 303.602 341.859 282.567C355.915 261.531 363.417 236.8 363.417 211.5C363.417 194.702 360.108 178.068 353.68 162.548C347.251 147.029 337.829 132.927 325.951 121.049C314.073 109.171 299.971 99.7488 284.452 93.3204C268.932 86.892 252.298 83.5833 235.5 83.5833ZM235.5 313.833C215.261 313.833 195.475 307.832 178.647 296.587C161.818 285.343 148.702 269.36 140.957 250.661C133.211 231.962 131.185 211.386 135.133 191.536C139.082 171.685 148.828 153.451 163.14 139.139C177.451 124.828 195.685 115.082 215.536 111.133C235.387 107.184 255.963 109.211 274.661 116.956C293.36 124.702 309.343 137.818 320.587 154.647C331.832 171.475 337.834 191.26 337.834 211.5C337.834 238.64 327.052 264.669 307.861 283.861C288.67 303.052 262.641 313.833 235.5 313.833Z" fill="#3BCF07"/>
</svg>
